<?xml version="1.0" standalone="no"?><!DOCTYPE svg PUBLIC "-//W3C//DTD SVG 1.1//EN" "http://www.w3.org/Graphics/SVG/1.1/DTD/svg11.dtd"><svg t="1555313273087" class="icon" style="" viewBox="0 0 1024 1024" version="1.1" xmlns="http://www.w3.org/2000/svg" p-id="9227" xmlns:xlink="http://www.w3.org/1999/xlink" width="200" height="200"><defs><style type="text/css"></style></defs><path d="M896 128l0 115.2C812.8 96 659.2 0 480 0 224 0 19.2 198.4 0 448c0 12.8 0 19.2 0 32S0 512 0 512l64 0c0 0 0-19.2 0-32S64 460.8 64 448c19.2-217.6 198.4-384 416-384 172.8 0 320 108.8 384 256L704 320l0 64 179.2 0 64 0L960 384 960 128 896 128z" p-id="9228"></path><path d="M896 448c0 12.8 0 19.2 0 32s0 19.2 0 32c-19.2 217.6-198.4 384-416 384-172.8 0-320-108.8-384-256L256 640 256 576 76.8 576l-64 0L0 576l0 256 64 0 0-115.2C147.2 864 300.8 960 480 960c256 0 460.8-198.4 480-448 0-12.8 0-19.2 0-32s0-19.2 0-32L896 448z" p-id="9229"></path></svg>